<svg width="37" height="34" viewBox="0 0 37 34" fill="none" xmlns="http://www.w3.org/2000/svg">
<path d="M0.730011 33.46V0H17.22C20.95 0 24.23 0.680003 27.07 2.03C29.91 3.38 32.12 5.3 33.71 7.79C35.3 10.28 36.1 13.24 36.1 16.68C36.1 20.15 35.3 23.14 33.71 25.64C32.12 28.14 29.9 30.07 27.07 31.42C24.23 32.77 20.95 33.45 17.22 33.45H0.730011V33.46ZM12.01 24.67H16.74C18.33 24.67 19.73 24.37 20.92 23.76C22.12 23.16 23.05 22.25 23.72 21.06C24.39 19.86 24.72 18.41 24.72 16.69C24.72 15 24.39 13.57 23.72 12.39C23.05 11.21 22.12 10.32 20.92 9.71C19.73 9.11 18.33 8.8 16.74 8.8H12.01V24.67Z" fill="url(#paint0_linear_1_9)"/>
<defs>
<linearGradient id="paint0_linear_1_9" x1="18.415" y1="0" x2="18.415" y2="33.46" gradientUnits="userSpaceOnUse">
<stop stop-color="#1D52B0"/>
<stop offset="1" stop-color="#D96F2E"/>
</linearGradient>
</defs>
</svg>
